<svg version="1.1" xmlns="http://www.w3.org/2000/svg" viewBox="0 0 1120 928" preserveAspectRatio="xMidYMid meet">
<path d="M0 0 C0.77 0.001 1.54 0.001 2.333 0.002 C14.586 0.041 26.13 0.863 37.938 4.375 C38.74 4.611 39.542 4.846 40.369 5.089 C57.023 10.092 57.023 10.092 63.938 14.375 C65.417 17.334 65.082 20.337 65.078 23.581 C65.081 24.332 65.084 25.083 65.087 25.856 C65.096 28.386 65.097 30.915 65.099 33.445 C65.103 35.253 65.108 37.061 65.114 38.87 C65.127 43.791 65.133 48.713 65.138 53.634 C65.141 56.706 65.145 59.778 65.149 62.849 C65.163 72.452 65.173 82.055 65.176 91.658 C65.181 102.759 65.198 113.859 65.227 124.96 C65.249 133.531 65.259 142.101 65.26 150.672 C65.261 155.796 65.267 160.919 65.285 166.043 C65.302 170.86 65.304 175.677 65.295 180.494 C65.294 182.265 65.299 184.036 65.309 185.807 C65.321 188.219 65.315 190.63 65.305 193.042 C65.317 194.101 65.317 194.101 65.329 195.181 C65.3 198.037 65.252 199.928 63.58 202.301 C61.129 203.904 58.98 203.916 56.074 204.113 C54.888 204.208 53.702 204.302 52.48 204.399 C50.572 204.542 50.572 204.542 48.625 204.688 C21.053 207.175 -9.218 215.729 -29.062 236.375 C-29.393 237.035 -29.722 237.695 -30.062 238.375 C-28.423 238.561 -28.423 238.561 -26.75 238.75 C-23.473 239.149 -20.277 239.727 -17.043 240.387 C11.082 245.519 38.937 238.675 62.312 222.625 C65.382 220.438 68.015 218.297 70.664 215.609 C72.938 213.375 72.938 213.375 74.938 213.375 C74.938 212.715 74.938 212.055 74.938 211.375 C75.597 211.375 76.257 211.375 76.938 211.375 C77.213 210.776 77.489 210.176 77.773 209.559 C78.938 207.375 78.938 207.375 81.562 204.438 C99.756 183.537 104.491 156.254 102.938 129.375 C101.621 117.258 97.392 106.191 91.938 95.375 C91.403 94.305 90.868 93.235 90.316 92.133 C85.528 83.291 78.994 76.431 71.938 69.375 C71.697 67.388 71.697 67.388 71.71 64.925 C71.711 63.544 71.711 63.544 71.711 62.135 C71.721 61.139 71.732 60.143 71.742 59.117 C71.745 58.099 71.748 57.081 71.751 56.032 C71.762 52.771 71.787 49.511 71.812 46.25 C71.823 44.043 71.832 41.836 71.84 39.629 C71.862 34.211 71.895 28.793 71.938 23.375 C76.633 22.244 76.633 22.244 79.375 23.422 C110.612 44.183 133.196 74.735 141.195 111.688 C141.563 113.513 141.563 113.513 141.938 115.375 C142.274 116.953 142.274 116.953 142.617 118.562 C148.573 151.851 141.35 188.368 123 216.75 C118.947 222.545 114.537 228.007 109.938 233.375 C109.24 234.208 108.543 235.04 107.824 235.898 C85.418 261.868 50.177 279.692 15.938 282.375 C0.104 283.043 -15.57 282.925 -31.062 279.375 C-32.105 279.142 -32.105 279.142 -33.169 278.903 C-48.248 275.377 -66.329 268.733 -78.062 258.375 C-78.062 257.385 -78.062 256.395 -78.062 255.375 C-76.078 253.535 -76.078 253.535 -73.312 251.438 C-60.697 241.394 -50.633 229.829 -42.047 216.168 C-26.068 193.678 15.155 185.022 39.938 180.375 C39.938 136.815 39.938 93.255 39.938 48.375 C29.095 44.061 29.095 44.061 18.062 41.562 C17.304 41.446 16.546 41.329 15.765 41.208 C-12.251 37.21 -38.407 45.559 -61.363 61.344 C-64.884 63.993 -68.131 66.869 -71.32 69.906 C-73.062 71.375 -73.062 71.375 -75.062 71.375 C-75.445 72.245 -75.445 72.245 -75.836 73.133 C-77.185 75.598 -78.726 77.242 -80.688 79.25 C-98.455 98.949 -103.191 124.837 -102.227 150.523 C-101.497 163.206 -97.679 177.256 -90.746 188.031 C-89.062 191.375 -89.062 191.375 -89.469 193.918 C-91.549 197.125 -93.945 199.918 -96.562 202.688 C-97.095 203.256 -97.627 203.825 -98.176 204.411 C-104.002 210.525 -109.992 216.485 -118.062 219.375 C-131.302 202.163 -138.676 181.683 -142.062 160.375 C-142.194 159.567 -142.325 158.759 -142.461 157.926 C-147.015 122.663 -137.547 85.667 -116.062 57.375 C-112.239 52.55 -108.202 47.929 -104.062 43.375 C-103.461 42.701 -102.859 42.027 -102.238 41.332 C-85.593 23.68 -62.793 12.111 -39.875 5.062 C-39.092 4.82 -38.309 4.577 -37.503 4.327 C-25.148 0.71 -12.791 -0.034 0 0 Z " fill="#ffffffff" transform="translate(638.0625,261.625)"/>
<path d="M0 0 C-1.266 3.798 -2.92 4.746 -6.062 7.188 C-14.547 13.984 -21.37 21.395 -28 30 C-31.614 29.281 -34.636 27.8 -37.938 26.188 C-63.754 14.146 -89.589 14.396 -116 24 C-116.33 68.22 -116.66 112.44 -117 158 C-112.38 158.66 -107.76 159.32 -103 160 C-99.484 160.822 -96.077 161.669 -92.625 162.688 C-91.732 162.948 -90.839 163.209 -89.919 163.477 C-81.612 165.982 -73.778 169.173 -66 173 C-65.369 173.307 -64.738 173.613 -64.088 173.929 C-51.813 179.964 -39.99 187.185 -30.648 197.309 C-28.065 199.961 -28.065 199.961 -25 202 C-19.448 200.614 -15.313 196.578 -11 193 C-10.19 192.339 -9.381 191.677 -8.547 190.996 C10.707 174.558 21.891 151.132 24 126 C24.954 105.896 21.313 87.467 11.941 69.672 C11 67 11 67 11.648 64.871 C18.849 54.902 28.224 45.049 39 39 C39.99 39 40.98 39 42 39 C62.694 73.865 70.969 112.679 60.812 152.5 C52.609 182.782 35.197 210.085 10 229 C9.038 229.727 8.077 230.454 7.086 231.203 C-12.042 245.053 -33.708 254.068 -57 258 C-57.996 258.183 -58.993 258.366 -60.02 258.555 C-96.425 263.56 -134.83 253.069 -164.286 231.261 C-177.437 221.105 -189.369 209.245 -198 195 C-198.372 194.403 -198.743 193.806 -199.126 193.19 C-218.257 162.264 -224.958 123.713 -216.965 88.16 C-210.995 63.529 -200.065 42.538 -182.75 23.961 C-180.948 22.114 -180.948 22.114 -180 20 C-179.34 20 -178.68 20 -178 20 C-178 19.34 -178 18.68 -178 18 C-173.663 13.388 -168.31 9.622 -163.312 5.75 C-162.766 5.326 -162.22 4.902 -161.657 4.465 C-155.307 -0.399 -155.307 -0.399 -152 -2 C-149.853 -1.571 -149.853 -1.571 -148 -1 C-147.745 5.51 -147.571 12.018 -147.451 18.531 C-147.401 20.743 -147.333 22.954 -147.246 25.165 C-146.501 44.6 -146.501 44.6 -150.106 49.504 C-152.606 51.953 -155.162 53.962 -158 56 C-174.659 75.318 -180.422 102.19 -179 127 C-176.937 148.212 -169.009 167.922 -155 184 C-154.232 184.969 -153.463 185.939 -152.672 186.938 C-149.93 190.228 -146.821 192.829 -143.438 195.438 C-142.823 195.913 -142.208 196.389 -141.574 196.88 C-119.398 213.745 -92.272 221.062 -64.534 217.701 C-61.266 217.155 -58.082 216.444 -54.863 215.656 C-52 215 -52 215 -48 215 C-69.426 192.146 -100.027 184.224 -130.117 181.038 C-131.589 180.876 -131.589 180.876 -133.09 180.711 C-134.403 180.576 -134.403 180.576 -135.742 180.439 C-138 180 -138 180 -141 178 C-141.303 175.48 -141.409 173.204 -141.388 170.68 C-141.393 169.917 -141.398 169.154 -141.404 168.368 C-141.418 165.796 -141.411 163.226 -141.404 160.655 C-141.41 158.817 -141.417 156.979 -141.425 155.141 C-141.443 150.139 -141.442 145.137 -141.436 140.135 C-141.433 135.965 -141.439 131.795 -141.445 127.625 C-141.459 117.789 -141.457 107.954 -141.446 98.119 C-141.435 87.96 -141.449 77.801 -141.475 67.643 C-141.498 58.932 -141.504 50.221 -141.498 41.51 C-141.495 36.303 -141.497 31.095 -141.515 25.888 C-141.53 20.992 -141.526 16.096 -141.507 11.2 C-141.504 9.4 -141.507 7.6 -141.517 5.8 C-141.53 3.348 -141.519 0.898 -141.501 -1.553 C-141.516 -2.63 -141.516 -2.63 -141.53 -3.728 C-141.482 -6.956 -141.431 -8.567 -139.104 -10.907 C-136.928 -12.037 -134.832 -12.938 -132.508 -13.719 C-131.644 -14.01 -130.781 -14.301 -129.891 -14.601 C-128.978 -14.898 -128.065 -15.194 -127.125 -15.5 C-126.188 -15.808 -125.25 -16.116 -124.285 -16.434 C-82.563 -29.879 -36.604 -24.403 0 0 Z " fill="#faf9f9ff" transform="translate(546,285)"/>
</svg>